# xmcd
#
# Track frame offsets: 
#        182
#        6250
#        33352
#        56165
#        71097
#        86320
#        110817
#        125552
#        137332
#        145630
#        159822
#        178120
#        191395
#        205880
#        219535
#        232800
#        245822
#        261962
#
# Disc length: 3755 seconds
#
# Revision: 8
# Processed by: cddbd v1.5.2PL0 Copyright (c) Steve Scherf et al.
# Submitted via: ExactAudioCopyFreeDBPlugin 1.0
#
DISCID=fe0ea912
DTITLE=Sounds of Blackness - The Night Before Christmas . . .  A Music
DTITLE=al Fantasy
DYEAR=1992
DGENRE=Gospel
TTITLE0=Born in a Manger
TTITLE1=Soul Holiday
TTITLE2=It's Christmas Time
TTITLE3=Away in a Manger
TTITLE4=O Come All Ye Faithful
TTITLE5=O Holy Night
TTITLE6=Peace on Earth for Everyone
TTITLE7=Children Go
TTITLE8=Santa's Comin' to Town
TTITLE9=Dance, Chilins, Dance
TTITLE10=Holiday Love
TTITLE11=Santa Won't You Come By
TTITLE12=The Jolly One's Here
TTITLE13=Dash Away All - Reindeer Revolt
TTITLE14=Give Us a Chance
TTITLE15=Santa Watch Yo' Step
TTITLE16=Why Don't You Believe in Me?
TTITLE17=Merry Christmas to the World
EXTD=YEAR: 1992
EXTT0=
EXTT1=
EXTT2=
EXTT3=
EXTT4=
EXTT5=
EXTT6=
EXTT7=
EXTT8=
EXTT9=
EXTT10=
EXTT11=
EXTT12=
EXTT13=
EXTT14=
EXTT15=
EXTT16=
EXTT17=
PLAYORDER=
